inDegrees=yes
name=ik_S49_A11_T02
DataType=double
version=3
OpenSimVersion=4.3-2021-08-27-4bc7ad9
endheader
time	pelvis_tilt	pelvis_list	pelvis_rotation	pelvis_tx	pelvis_ty	pelvis_tz	hip_flexion_r	hip_adduction_r	hip_rotation_r	knee_angle_r	knee_angle_r_beta	ankle_angle_r	subtalar_angle_r	mtp_angle_r	hip_flexion_l	hip_adduction_l	hip_rotation_l	knee_angle_l	knee_angle_l_beta	ankle_angle_l	subtalar_angle_l	mtp_angle_l	lumbar_extension	lumbar_bending	lumbar_rotation	arm_flex_r	arm_add_r	arm_rot_r	elbow_flex_r	pro_sup_r	wrist_flex_r	wrist_dev_r	arm_flex_l	arm_add_l	arm_rot_l	elbow_flex_l	pro_sup_l	wrist_flex_l	wrist_dev_l
0	0	0	0	0	0.9399999999999999	0	0	0	0	0	0	0	0	0	0	0	0	0	0	0	0	0	0	0	0	0	0	0	0	89.99999999963507	0	0	0	0	0	0	89.99999999869995	0	0
0.02	-0.174629005136034	0.179350062406485	36.02265309102317	0	0.9399999999999999	0	1.186188426632871	-0.5530717602715822	-0.3977355881439817	1.848935761289331	0.03227001669236674	0	0	0	1.186188426632871	-0.5530717602715822	-0.3977355881439817	1.848935761289331	0.03227001669236674	0	0	0	-0.2174788985917341	0.1782443622799924	17.62984445156397	-3.547014715801969	-1.368618812177813	-1.304170603298216	6.114619044375521	91.32661525328415	0	0	-1.771117877280989	-2.420284630137877	-3.205474429127719	4.846734925394363	104.2182416327887	0	0
0.04	-0.1614533648990841	0.1645260814556998	36.47119273105906	0	0.9399999999999999	0	3.588268693715416	-1.619170922009847	-1.284450207368941	3.803827335580795	0.06638931118324812	0	0	0	3.588268693715416	-1.619170922009847	-1.284450207368941	3.803827335580795	0.06638931118324812	0	0	0	-0.2259723502939796	0.1940618277623606	17.17518991962976	-3.552673790633257	-1.36714338275381	-1.303677127046352	6.168450156438724	91.29756465798587	0	0	-1.781426796658174	-2.413977730084409	-3.199688697684957	4.872872635026714	104.221644727865	0	0
0.06	-0.1618598360570113	0.1618240838264083	36.50200500597367	0	0.9399999999999999	0	3.76379709579038	-1.694464210366918	-1.346705033390009	3.948183480858907	0.06890880121383844	0	0	0	3.76379709579038	-1.694464210366918	-1.346705033390009	3.948183480858907	0.06890880121383844	0	0	0	-0.2274099683602515	0.1921790829093915	17.14539414918093	-3.564893398798621	-1.355853938898174	-1.312085220736806	6.158724524963036	91.3120379531901	0	0	-1.781052924126579	-2.401493859156499	-3.215756901714461	4.868950694690673	104.2399540130904	0	0
0.08	-0.1642719430863756	0.1503193745649072	36.94721544103896	0	0.9399999999999999	0	5.53292815345046	-2.44580279066643	-1.967409005660422	5.570636396394364	0.09722594654851362	0	0	0	5.53292815345046	-2.44580279066643	-1.967409005660422	5.570636396394364	0.09722594654851362	0	0	0	-0.237996131929781	0.2019114040060495	16.70769981100861	-3.561512632100884	-1.375826894903685	-1.344952731664156	6.173182447890172	91.26969801148299	0	0	-1.782694853537886	-2.395008486015598	-3.213954780974042	4.869700947980068	104.2018118851168	0	0
0.1	-0.172153773721952	0.1421861519630715	37.02087705735569	0	0.9399999999999999	0	5.903512226622824	-2.590582068869042	-2.094097369425127	5.860765269106429	0.1022896506324387	0	0	0	5.903512226622824	-2.590582068869042	-2.094097369425127	5.860765269106429	0.1022896506324387	0	0	0	-0.2482450567115217	0.2000197483917956	16.6272977842553	-3.563853586223769	-1.391985347162002	-1.370901275891513	6.20008157041273	91.26967791886695	0	0	-1.765223860749233	-2.385578557459586	-3.223618339378413	4.849600810728267	104.1644676018323	0	0
0.12	-0.1727635145727871	0.1414458149561419	37.08752982120243	0	0.9399999999999999	0	6.277158969763948	-2.734033687739009	-2.22072748687726	6.152476543056582	0.107380972828056	0	0	0	6.277158969763948	-2.734033687739009	-2.22072748687726	6.152476543056582	0.107380972828056	0	0	0	-0.2480041827498115	0.1992256817529367	16.55714804435113	-3.581743727686665	-1.405731765275447	-1.399065350157654	6.22913627303818	91.26261065090985	0	0	-1.760390370623202	-2.381741631385521	-3.21780139957258	4.824894771805313	104.0948596166084	0	0
0.14	-0.1867480898527544	0.1260977189203106	37.11887155409919	0	0.9399999999999999	0	6.398970499853826	-2.782011986770141	-2.261907555660037	6.256466121762597	0.1091959333642378	0	0	0	6.398970499853826	-2.782011986770141	-2.261907555660037	6.256466121762597	0.1091959333642378	0	0	0	-0.2677767311225329	0.1950508167185322	16.52737204076902	-3.570714796373003	-1.41506916120854	-1.408539186692719	6.236486107802953	91.28087892961013	0	0	-1.724046333743153	-2.380525820125018	-3.221770352255473	4.824020682556253	104.1326999973852	0	0
0.16	-0.1851098952498131	0.1236242102465894	37.19071306887209	0	0.9399999999999999	0	6.787244592783249	-2.932621882673715	-2.392360899071236	6.584848844784434	0.1149272930876334	0	0	0	6.787244592783249	-2.932621882673715	-2.392360899071236	6.584848844784434	0.1149272930876334	0	0	0	-0.2667971749294822	0.1916921703197165	16.44817033495827	-3.583366557994023	-1.411400527991333	-1.405800083222321	6.249140071218902	91.25418010394397	0	0	-1.763927286250582	-2.393688756059051	-3.184743585138472	4.868985612475655	104.1030599155152	0	0
0.18	-0.1959532012121767	0.1041829916214395	37.49810877850101	0	0.9399999999999999	0	8.124600231586252	-3.466853321557904	-2.837179497068309	7.896861789921341	0.1378262388090602	0	0	0	8.124600231586252	-3.466853321557904	-2.837179497068309	7.896861789921341	0.1378262388090602	0	0	0	-0.2858277149681657	0.184895473332888	16.14948973702321	-3.561621421287434	-1.412002616804471	-1.408214169119878	6.35913696984131	91.20839308237389	0	0	-1.738867223766689	-2.386463201784764	-3.157448320216723	4.971655745311912	103.9997591998399	0	0
